<?xml version="1.0" encoding="UTF-8" standalone="no"?>
<!-- Created with Inkscape (http://www.inkscape.org/) -->

<svg
   width="1024"
   height="1024"
   viewBox="0 0 270.93333 270.93333"
   version="1.1"
   id="svg1"
   inkscape:version="1.4 (86a8ad7, 2024-10-11)"
   sodipodi:docname="bg swirl.svg"
   inkscape:export-filename="bg circle a.png"
   inkscape:export-xdpi="96"
   inkscape:export-ydpi="96"
   xmlns:inkscape="http://www.inkscape.org/namespaces/inkscape"
   xmlns:sodipodi="http://sodipodi.sourceforge.net/DTD/sodipodi-0.dtd"
   xmlns="http://www.w3.org/2000/svg"
   xmlns:svg="http://www.w3.org/2000/svg">
  <sodipodi:namedview
     id="namedview1"
     pagecolor="#505050"
     bordercolor="#eeeeee"
     borderopacity="1"
     inkscape:showpageshadow="0"
     inkscape:pageopacity="0"
     inkscape:pagecheckerboard="0"
     inkscape:deskcolor="#505050"
     inkscape:document-units="px"
     inkscape:zoom="0.51847643"
     inkscape:cx="300.88156"
     inkscape:cy="813.92321"
     inkscape:window-width="2560"
     inkscape:window-height="1476"
     inkscape:window-x="-12"
     inkscape:window-y="-12"
     inkscape:window-maximized="1"
     inkscape:current-layer="layer1" />
  <defs
     id="defs1">
    <filter
       inkscape:collect="always"
       style="color-interpolation-filters:sRGB"
       id="filter23"
       x="-0.076131271"
       y="-0.076131271"
       width="1.1522625"
       height="1.1522625">
      <feGaussianBlur
         inkscape:collect="always"
         stdDeviation="5.418667"
         id="feGaussianBlur23" />
    </filter>
  </defs>
  <g
     inkscape:label="Layer 1"
     inkscape:groupmode="layer"
     id="layer1">
    <path
       style="opacity:1;fill:#ffffff;stroke-width:5.29168;stroke-linecap:round;stroke-linejoin:round"
       d="m -301.09583,135.46667 c -29.50759,8.93886 -36.62768,109.95698 16.78412,192.83487 h -33.56825 c -48.11276,-75.44283 -44.72809,-181.12117 16.78413,-192.83487 z"
       id="path1"
       sodipodi:nodetypes="cccc"
       inkscape:transform-center-y="96.41744"
       inkscape:transform-center-x="16.532917" />
    <path
       style="opacity:1;fill:#ffffff;stroke-width:5.29168;stroke-linecap:round;stroke-linejoin:round"
       d="m -301.09583,135.46667 c -14.54429,27.18574 51.85166,103.65102 148.22301,124.48668 l -23.73633,23.73633 c -87.367,-19.32527 -159.69955,-96.44446 -124.48668,-148.22301 z"
       id="path16"
       sodipodi:nodetypes="cccc"
       inkscape:transform-center-y="74.111514"
       inkscape:transform-center-x="-69.559918" />
    <path
       style="opacity:1;fill:#ffffff;stroke-width:5.29168;stroke-linecap:round;stroke-linejoin:round"
       d="m -301.09583,135.46667 c 8.93887,29.50759 109.95699,36.62767 192.83487,-16.78413 v 33.56825 c -75.44282,48.11277 -181.12116,44.7281 -192.83487,-16.78412 z"
       id="path17"
       sodipodi:nodetypes="cccc"
       inkscape:transform-center-y="16.532918"
       inkscape:transform-center-x="-96.417431" />
    <path
       style="opacity:1;fill:#ffffff;stroke-width:5.29168;stroke-linecap:round;stroke-linejoin:round"
       d="m -301.09583,135.46667 c 27.18575,14.54428 103.65101,-51.851664 124.48668,-148.223017 l 23.73634,23.736334 c -19.32527,87.366994 -96.44446,159.699543 -148.22302,124.486683 z"
       id="path18"
       sodipodi:nodetypes="cccc"
       inkscape:transform-center-y="-69.559918"
       inkscape:transform-center-x="-74.111507" />
    <path
       style="opacity:1;fill:#ffffff;stroke-width:5.29168;stroke-linecap:round;stroke-linejoin:round"
       d="m -301.09583,135.46667 c 29.5076,-8.93887 36.62768,-109.957002 -16.78412,-192.834878 l 33.56825,-3e-6 c 48.11275,75.442826 44.72809,181.121161 -16.78413,192.834881 z"
       id="path19"
       sodipodi:nodetypes="cccc"
       inkscape:transform-center-y="-96.417434"
       inkscape:transform-center-x="-16.532912" />
    <path
       style="opacity:1;fill:#ffffff;stroke-width:5.29168;stroke-linecap:round;stroke-linejoin:round"
       d="M -301.09583,135.46667 C -286.55154,108.28092 -352.94748,31.815648 -449.31884,10.979983 l 23.73633,-23.736334 c 87.367,19.3252709 159.69955,96.44446 124.48668,148.223021 z"
       id="path20"
       sodipodi:nodetypes="cccc"
       inkscape:transform-center-y="-74.111505"
       inkscape:transform-center-x="69.559926" />
    <path
       style="opacity:1;fill:#ffffff;stroke-width:5.29168;stroke-linecap:round;stroke-linejoin:round"
       d="m -301.09583,135.46667 c -8.93886,-29.50759 -109.95699,-36.627683 -192.83487,16.78412 v -33.56825 c 75.44283,-48.112764 181.12116,-44.728098 192.83487,16.78413 z"
       id="path21"
       sodipodi:nodetypes="cccc"
       inkscape:transform-center-y="-16.532913"
       inkscape:transform-center-x="96.417441" />
    <path
       style="opacity:1;fill:#ffffff;stroke-width:5.29168;stroke-linecap:round;stroke-linejoin:round"
       d="m -301.09583,135.46667 c -27.18574,-14.54429 -103.65102,51.85165 -124.48668,148.22301 l -23.73633,-23.73633 c 19.32527,-87.367 96.44446,-159.69955 148.22301,-124.48668 z"
       id="path22"
       sodipodi:nodetypes="cccc"
       inkscape:transform-center-y="69.559926"
       inkscape:transform-center-x="74.111511" />
    <circle
       style="opacity:1;mix-blend-mode:normal;fill:none;stroke:#ffffff;stroke-width:15.2434;stroke-linecap:round;stroke-linejoin:round;stroke-dasharray:none;stroke-opacity:1;filter:url(#filter23)"
       id="path23"
       cx="135.46666"
       cy="135.46666"
       r="135.46667"
       transform="matrix(0.86786003,0,0,0.86786003,17.90056,17.90056)" />
  </g>
</svg>
